<mxfile host="app.diagrams.net" modified="2022-04-09T14:50:03.425Z" agent="5.0 (Windows NT 10.0; Win64; x64) AppleWebKit/537.36 (KHTML, like Gecko) Chrome/99.0.4844.84 Safari/537.36" etag="EqeZptqz39k1HeUYk-NB" version="15.4.1" type="github">
  <diagram id="VSM-XXBy0uZ8V0hurI6F" name="Page-1">
    <mxGraphModel dx="1422" dy="794" grid="1" gridSize="10" guides="1" tooltips="1" connect="1" arrows="1" fold="1" page="1" pageScale="1" pageWidth="827" pageHeight="1169" math="0" shadow="0">
      <root>
        <mxCell id="0" />
        <mxCell id="1" parent="0" />
        <mxCell id="DOIMrefh4fmJaMLecF6K-51" style="edgeStyle=orthogonalEdgeStyle;rounded=0;orthogonalLoop=1;jettySize=auto;html=1;exitX=0.25;exitY=1;exitDx=0;exitDy=0;entryX=0.283;entryY=0.017;entryDx=0;entryDy=0;entryPerimeter=0;" edge="1" parent="1" source="DOIMrefh4fmJaMLecF6K-1" target="DOIMrefh4fmJaMLecF6K-2">
          <mxGeometry relative="1" as="geometry">
            <Array as="points">
              <mxPoint x="373" y="90" />
            </Array>
          </mxGeometry>
        </mxCell>
        <mxCell id="DOIMrefh4fmJaMLecF6K-1" value="Git" style="rounded=0;whiteSpace=wrap;html=1;" vertex="1" parent="1">
          <mxGeometry x="340" y="30" width="120" height="60" as="geometry" />
        </mxCell>
        <mxCell id="DOIMrefh4fmJaMLecF6K-32" style="edgeStyle=orthogonalEdgeStyle;rounded=0;orthogonalLoop=1;jettySize=auto;html=1;exitX=0;exitY=0.5;exitDx=0;exitDy=0;" edge="1" parent="1" source="DOIMrefh4fmJaMLecF6K-2" target="DOIMrefh4fmJaMLecF6K-4">
          <mxGeometry relative="1" as="geometry" />
        </mxCell>
        <mxCell id="DOIMrefh4fmJaMLecF6K-47" value="Deploy" style="edgeLabel;html=1;align=center;verticalAlign=middle;resizable=0;points=[];" vertex="1" connectable="0" parent="DOIMrefh4fmJaMLecF6K-32">
          <mxGeometry x="0.4634" y="-3" relative="1" as="geometry">
            <mxPoint x="3" as="offset" />
          </mxGeometry>
        </mxCell>
        <mxCell id="DOIMrefh4fmJaMLecF6K-41" style="edgeStyle=orthogonalEdgeStyle;rounded=0;orthogonalLoop=1;jettySize=auto;html=1;exitX=0;exitY=1;exitDx=0;exitDy=0;entryX=0.5;entryY=0;entryDx=0;entryDy=0;" edge="1" parent="1" source="DOIMrefh4fmJaMLecF6K-2" target="DOIMrefh4fmJaMLecF6K-12">
          <mxGeometry relative="1" as="geometry" />
        </mxCell>
        <mxCell id="DOIMrefh4fmJaMLecF6K-52" value="Deploy" style="edgeLabel;html=1;align=center;verticalAlign=middle;resizable=0;points=[];" vertex="1" connectable="0" parent="DOIMrefh4fmJaMLecF6K-41">
          <mxGeometry x="-0.7598" y="-2" relative="1" as="geometry">
            <mxPoint y="14" as="offset" />
          </mxGeometry>
        </mxCell>
        <mxCell id="DOIMrefh4fmJaMLecF6K-43" style="edgeStyle=orthogonalEdgeStyle;rounded=0;orthogonalLoop=1;jettySize=auto;html=1;exitX=1;exitY=1;exitDx=0;exitDy=0;entryX=0.5;entryY=0;entryDx=0;entryDy=0;" edge="1" parent="1" source="DOIMrefh4fmJaMLecF6K-2" target="DOIMrefh4fmJaMLecF6K-16">
          <mxGeometry relative="1" as="geometry" />
        </mxCell>
        <mxCell id="DOIMrefh4fmJaMLecF6K-44" style="edgeStyle=orthogonalEdgeStyle;rounded=0;orthogonalLoop=1;jettySize=auto;html=1;exitX=1;exitY=0.5;exitDx=0;exitDy=0;entryX=0.5;entryY=0;entryDx=0;entryDy=0;" edge="1" parent="1" source="DOIMrefh4fmJaMLecF6K-2" target="DOIMrefh4fmJaMLecF6K-27">
          <mxGeometry relative="1" as="geometry" />
        </mxCell>
        <mxCell id="DOIMrefh4fmJaMLecF6K-54" value="Swap" style="edgeLabel;html=1;align=center;verticalAlign=middle;resizable=0;points=[];" vertex="1" connectable="0" parent="DOIMrefh4fmJaMLecF6K-44">
          <mxGeometry x="0.4439" y="1" relative="1" as="geometry">
            <mxPoint as="offset" />
          </mxGeometry>
        </mxCell>
        <mxCell id="DOIMrefh4fmJaMLecF6K-50" style="edgeStyle=orthogonalEdgeStyle;rounded=0;orthogonalLoop=1;jettySize=auto;html=1;exitX=1;exitY=0;exitDx=0;exitDy=0;entryX=0.75;entryY=1;entryDx=0;entryDy=0;" edge="1" parent="1" source="DOIMrefh4fmJaMLecF6K-2" target="DOIMrefh4fmJaMLecF6K-1">
          <mxGeometry relative="1" as="geometry">
            <Array as="points">
              <mxPoint x="430" y="189" />
            </Array>
          </mxGeometry>
        </mxCell>
        <mxCell id="DOIMrefh4fmJaMLecF6K-2" value="Validate" style="ellipse;whiteSpace=wrap;html=1;rounded=0;" vertex="1" parent="1">
          <mxGeometry x="340" y="180" width="120" height="60" as="geometry" />
        </mxCell>
        <mxCell id="DOIMrefh4fmJaMLecF6K-39" style="edgeStyle=orthogonalEdgeStyle;rounded=0;orthogonalLoop=1;jettySize=auto;html=1;exitX=0.5;exitY=1;exitDx=0;exitDy=0;entryX=0;entryY=0.5;entryDx=0;entryDy=0;" edge="1" parent="1" source="DOIMrefh4fmJaMLecF6K-4" target="DOIMrefh4fmJaMLecF6K-35">
          <mxGeometry relative="1" as="geometry" />
        </mxCell>
        <mxCell id="DOIMrefh4fmJaMLecF6K-4" value="Develop" style="whiteSpace=wrap;html=1;rounded=0;" vertex="1" parent="1">
          <mxGeometry x="40" y="380" width="120" height="60" as="geometry" />
        </mxCell>
        <mxCell id="DOIMrefh4fmJaMLecF6K-42" style="edgeStyle=orthogonalEdgeStyle;rounded=0;orthogonalLoop=1;jettySize=auto;html=1;exitX=0.5;exitY=1;exitDx=0;exitDy=0;entryX=0;entryY=0;entryDx=0;entryDy=0;" edge="1" parent="1" source="DOIMrefh4fmJaMLecF6K-12" target="DOIMrefh4fmJaMLecF6K-35">
          <mxGeometry relative="1" as="geometry">
            <mxPoint x="350" y="510" as="targetPoint" />
            <Array as="points">
              <mxPoint x="300" y="560" />
            </Array>
          </mxGeometry>
        </mxCell>
        <mxCell id="DOIMrefh4fmJaMLecF6K-12" value="QA" style="whiteSpace=wrap;html=1;rounded=0;" vertex="1" parent="1">
          <mxGeometry x="240" y="380" width="120" height="60" as="geometry" />
        </mxCell>
        <mxCell id="DOIMrefh4fmJaMLecF6K-45" style="edgeStyle=orthogonalEdgeStyle;rounded=0;orthogonalLoop=1;jettySize=auto;html=1;exitX=0.5;exitY=1;exitDx=0;exitDy=0;entryX=1;entryY=0;entryDx=0;entryDy=0;" edge="1" parent="1" source="DOIMrefh4fmJaMLecF6K-16" target="DOIMrefh4fmJaMLecF6K-35">
          <mxGeometry relative="1" as="geometry">
            <Array as="points">
              <mxPoint x="500" y="560" />
            </Array>
          </mxGeometry>
        </mxCell>
        <mxCell id="DOIMrefh4fmJaMLecF6K-16" value="Staging slot" style="whiteSpace=wrap;html=1;rounded=0;" vertex="1" parent="1">
          <mxGeometry x="440" y="380" width="120" height="60" as="geometry" />
        </mxCell>
        <mxCell id="DOIMrefh4fmJaMLecF6K-27" value="Prod" style="whiteSpace=wrap;html=1;rounded=0;" vertex="1" parent="1">
          <mxGeometry x="640" y="380" width="120" height="60" as="geometry" />
        </mxCell>
        <mxCell id="DOIMrefh4fmJaMLecF6K-46" style="edgeStyle=orthogonalEdgeStyle;rounded=0;orthogonalLoop=1;jettySize=auto;html=1;exitX=0.5;exitY=0;exitDx=0;exitDy=0;entryX=0.5;entryY=1;entryDx=0;entryDy=0;" edge="1" parent="1" source="DOIMrefh4fmJaMLecF6K-35" target="DOIMrefh4fmJaMLecF6K-2">
          <mxGeometry relative="1" as="geometry" />
        </mxCell>
        <mxCell id="DOIMrefh4fmJaMLecF6K-35" value="Approval" style="rhombus;whiteSpace=wrap;html=1;rounded=0;" vertex="1" parent="1">
          <mxGeometry x="360" y="540" width="80" height="80" as="geometry" />
        </mxCell>
        <mxCell id="DOIMrefh4fmJaMLecF6K-53" value="Deploy" style="edgeLabel;html=1;align=center;verticalAlign=middle;resizable=0;points=[];" vertex="1" connectable="0" parent="1">
          <mxGeometry x="365.58197245912993" y="280.21387236880923" as="geometry">
            <mxPoint x="74" y="-11" as="offset" />
          </mxGeometry>
        </mxCell>
      </root>
    </mxGraphModel>
  </diagram>
</mxfile>
